<svg
                        xmlns="http://www.w3.org/2000/svg"
                        width="22"
                        height="23"
                        viewBox="0 0 22 23"
                        fill="none"
                    >
                        <path
                            d="M21.6 2.48889V19.9111C21.6 21.2857 20.5255 22.4 19.2 22.4H14.7C14.3686 22.4 14.1 22.1214 14.1 21.7778V14.3111H16.908C17.1932 14.3112 17.439 14.1031 17.496 13.8133L17.928 11.5733C17.9458 11.4828 17.924 11.3888 17.8683 11.3167C17.8127 11.2446 17.729 11.2018 17.64 11.2H14.1V7.15556C14.1 6.98373 14.2343 6.84444 14.4 6.84444H17.4C17.7314 6.84444 18 6.56587 18 6.22222V4.35556C18 4.01191 17.7314 3.73333 17.4 3.73333H14.4C12.4118 3.73333 10.8 5.4048 10.8 7.46667V11.2H9.324C8.99263 11.2 8.724 11.4786 8.724 11.8222V13.6889C8.724 14.0325 8.99263 14.3111 9.324 14.3111H10.8V21.7778C10.8 22.1214 10.5314 22.4 10.2 22.4H2.4C1.07452 22.4 0 21.2857 0 19.9111V2.48889C0 1.11431 1.07452 0 2.4 0H19.2C20.5255 0 21.6 1.11431 21.6 2.48889Z"
                            fill="white"
                        />
                    </svg>