<svg
                        xmlns="http://www.w3.org/2000/svg"
                        width="25"
                        height="24"
                        viewBox="0 0 25 24"
                        fill="none"
                    >
                        <g clip-path="url(#clip0_214_342)">
                            <path
                                d="M6.99962 2.44497C8.14262 3.27797 9.03262 4.41497 9.79262 5.50297L10.2346 6.14697L10.6516 6.76197C10.8602 7.0667 10.9494 7.43752 10.9022 7.80377C10.855 8.17002 10.6747 8.5061 10.3956 8.74797L8.44462 10.197C8.35037 10.265 8.28402 10.365 8.2579 10.4783C8.23178 10.5916 8.24767 10.7105 8.30262 10.813C8.74462 11.616 9.53062 12.812 10.4306 13.712C11.3316 14.612 12.5836 15.45 13.4426 15.942C13.5503 16.0024 13.6771 16.0193 13.7969 15.9892C13.9167 15.9591 14.0203 15.8842 14.0866 15.78L15.3566 13.847C15.5901 13.5368 15.9346 13.329 16.3178 13.2672C16.7011 13.2053 17.0934 13.2941 17.4126 13.515L18.0756 13.974C19.3146 14.834 20.6456 15.811 21.6636 17.114C21.8251 17.3218 21.9278 17.5691 21.961 17.8301C21.9943 18.0912 21.9568 18.3563 21.8526 18.598C21.0156 20.551 18.8976 22.214 16.6946 22.133L16.3946 22.116L16.1616 22.096L15.9036 22.066L15.6226 22.028L15.3176 21.978C15.2642 21.9683 15.2109 21.9583 15.1576 21.948L14.8216 21.876C14.7629 21.8631 14.7042 21.8497 14.6456 21.836L14.2796 21.742L13.8946 21.632L13.4926 21.502C11.6466 20.876 9.30362 19.646 6.89962 17.242C4.49662 14.839 3.26662 12.496 2.64062 10.65L2.51062 10.248L2.40062 9.86297L2.30662 9.49697L2.22862 9.15097C2.20609 9.04261 2.18509 8.93393 2.16562 8.82497L2.11562 8.51997L2.07562 8.23897L2.04662 7.98097L2.02662 7.74797L2.01062 7.44797C1.92962 5.25197 3.61062 3.11897 5.55462 2.28597C5.7886 2.18494 6.04482 2.14647 6.29815 2.17435C6.55148 2.20222 6.79321 2.29548 6.99962 2.44497ZM15.1346 6.03997L15.2506 6.05297C15.9785 6.18137 16.6471 6.53691 17.1605 7.06865C17.6739 7.60039 18.0058 8.28101 18.1086 9.01297C18.1453 9.26615 18.0835 9.52375 17.936 9.73277C17.7885 9.9418 17.5665 10.0864 17.3157 10.1367C17.0649 10.187 16.8043 10.1393 16.5876 10.0034C16.3709 9.8675 16.2145 9.65369 16.1506 9.40597L16.1276 9.29097C16.0874 9.00407 15.9649 8.73496 15.7751 8.51616C15.5852 8.29735 15.336 8.13821 15.0576 8.05797L14.9026 8.02297C14.6515 7.97847 14.4269 7.83971 14.2747 7.63508C14.1225 7.43045 14.0543 7.17541 14.0839 6.92212C14.1136 6.66883 14.2388 6.43643 14.4341 6.27245C14.6295 6.10848 14.88 6.02531 15.1346 6.03997ZM15.1426 2.99997C16.7339 2.99997 18.26 3.63211 19.3853 4.75733C20.5105 5.88255 21.1426 7.40867 21.1426 8.99997C21.1423 9.25485 21.0447 9.5 20.8698 9.68534C20.6948 9.87068 20.4557 9.98221 20.2012 9.99714C19.9468 10.0121 19.6962 9.9293 19.5008 9.76571C19.3053 9.60212 19.1797 9.37007 19.1496 9.11697L19.1426 8.99997C19.143 7.98439 18.7569 7.00673 18.0626 6.2655C17.3684 5.52426 16.4181 5.07502 15.4046 5.00897L15.1426 4.99997C14.8774 4.99997 14.6231 4.89461 14.4355 4.70708C14.248 4.51954 14.1426 4.26519 14.1426 3.99997C14.1426 3.73475 14.248 3.4804 14.4355 3.29286C14.6231 3.10533 14.8774 2.99997 15.1426 2.99997Z"
                                fill="white"
                            />
                        </g>
                        <defs>
                            <clipPath id="clip0_214_342">
                                <rect
                                    width="24"
                                    height="24"
                                    fill="white"
                                    transform="translate(0.142578)"
                                />
                            </clipPath>
                        </defs>
                    </svg>